# xmcd
#
# Track frame offsets:
#	183
#	12300
#	23763
#	33473
#	43443
#	55943
#	68355
#	80225
#	95355
#	105880
#
# Disc length: 1582
#
# Revision: 3
# Processed by: cddbd v1.5.1PL0 Copyright (c) Steve Scherf et al.
# Submitted via: CDValet v3.31 - Copyright (c) 1997 Greg Leichner
# Normalized: r1:TDELIM( - ),TSWAP
#
DISCID=77062c0a
DTITLE=Various Artist - Country Music Classics XVIII 1965-1970
DYEAR=1900
DGENRE=
TTITLE0=Glen Campbell - Galveston
TTITLE1=Wynn Stewart - It's Such A Pretty World Today
TTITLE2=Loretta Lynn - Don't Come Home A 'Drinkin' (With Loving On Your Mind)
TTITLE3=Buck Owens - I've Got A Tiger By The Tail
TTITLE4=Sonny James - Running Bear
TTITLE5=Johnny Cash - Folsom Prison Blues
TTITLE6=Tammy Wynette - I Don't Wanna Play House
TTITLE7=Roy Clark - Yesterday When I Was Young
TTITLE8=Roger Miller - Engine Engine No. 9
TTITLE9=Jim Reeves - Distance Drum
EXTD=
EXTT0=
EXTT1=
EXTT2=
EXTT3=
EXTT4=
EXTT5=
EXTT6=
EXTT7=
EXTT8=
EXTT9=
PLAYORDER=
